HIERARCHY
ROOT joint_Root
{
	OFFSET 0.0 0.0 0.0
	CHANNELS 6 Xposition Yposition Zposition Zrotation Xrotation Yrotation 
	JOINT Hips
	{
		OFFSET -0.726466 93.3139 -2.00062
		CHANNELS 6 Xposition Yposition Zposition Zrotation Xrotation Yrotation 
		JOINT Spine
		{
			OFFSET 15.7357 0.0 0.0
			CHANNELS 6 Xposition Yposition Zposition Zrotation Xrotation Yrotation 
			JOINT Chest
			{
				OFFSET 8.98455 -0.406207 0.0
				CHANNELS 6 Xposition Yposition Zposition Zrotation Xrotation Yrotation 
				JOINT Neck
				{
					OFFSET 16.3773 0.0 0.0
					CHANNELS 6 Xposition Yposition Zposition Zrotation Xrotation Yrotation 
					JOINT Head
					{
						OFFSET 6.45672 0.0 0.0
						CHANNELS 6 Xposition Yposition Zposition Zrotation Xrotation Yrotation 
						End Site
						{
							OFFSET 0.0 0.0 0.0
						}
					}
				}
				JOINT Shoulder_L
				{
					OFFSET 12.9942 -0.242716 4.98039
					CHANNELS 6 Xposition Yposition Zposition Zrotation Xrotation Yrotation 
					JOINT UpperArm_L
					{
						OFFSET 5.34809 0.0 0.0
						CHANNELS 6 Xposition Yposition Zposition Zrotation Xrotation Yrotation 
						JOINT LowerArm_L
						{
							OFFSET 24.3286 1.87007e-05 0.0
							CHANNELS 6 Xposition Yposition Zposition Zrotation Xrotation Yrotation 
							JOINT Hand_L
							{
								OFFSET 22.2916 0.0 0.0
								CHANNELS 6 Xposition Yposition Zposition Zrotation Xrotation Yrotation 
								End Site
								{
									OFFSET 0.0 0.0 0.0
								}
							}
						}
					}
				}
				JOINT Shoulder_R
				{
					OFFSET 12.9945 -0.242716 -4.98039
					CHANNELS 6 Xposition Yposition Zposition Zrotation Xrotation Yrotation 
					JOINT UpperArm_R
					{
						OFFSET -5.34813 0.0 0.0
						CHANNELS 6 Xposition Yposition Zposition Zrotation Xrotation Yrotation 
						JOINT LowerArm_R
						{
							OFFSET -24.3289 0.000322201 0.0
							CHANNELS 6 Xposition Yposition Zposition Zrotation Xrotation Yrotation 
							JOINT Hand_R
							{
								OFFSET -22.2915 -0.000108084 0.0
								CHANNELS 6 Xposition Yposition Zposition Zrotation Xrotation Yrotation 
								End Site
								{
									OFFSET 0.0 0.0 0.0
								}
							}
						}
					}
				}
			}
		}
		JOINT UpperLeg_L
		{
			OFFSET -2.19248 -6.46944 0.0
			CHANNELS 6 Xposition Yposition Zposition Zrotation Xrotation Yrotation 
			JOINT LowerLeg_L
			{
				OFFSET 39.0811 0.0 -1.23785e-05
				CHANNELS 6 Xposition Yposition Zposition Zrotation Xrotation Yrotation 
				JOINT Foot_L
				{
					OFFSET 40.9854 0.0 -1.26872e-05
					CHANNELS 6 Xposition Yposition Zposition Zrotation Xrotation Yrotation 
					JOINT Toes_L
					{
						OFFSET 11.7543 0.0 0.0
						CHANNELS 6 Xposition Yposition Zposition Zrotation Xrotation Yrotation 
						End Site
						{
							OFFSET 0.0 0.0 0.0
						}
					}
				}
			}
		}
		JOINT UpperLeg_R
		{
			OFFSET -2.19251 6.46944 0.0
			CHANNELS 6 Xposition Yposition Zposition Zrotation Xrotation Yrotation 
			JOINT LowerLeg_R
			{
				OFFSET -39.0811 -0.00228153 -0.0401928
				CHANNELS 6 Xposition Yposition Zposition Zrotation Xrotation Yrotation 
				JOINT Foot_R
				{
					OFFSET -40.9854 0.0 0.0
					CHANNELS 6 Xposition Yposition Zposition Zrotation Xrotation Yrotation 
					JOINT Toes_R
					{
						OFFSET -11.7543 0.0 0.0
						CHANNELS 6 Xposition Yposition Zposition Zrotation Xrotation Yrotation 
						End Site
						{
							OFFSET 0.0 0.0 0.0
						}
					}
				}
			}
		}
	}
}
MOTION
Frames:	9
Frame Time:	0.0333333
0.000000 0.000000 0.000000 0.000000 0.000000 -0.000000 70.029800 90.124000 165.953000 -88.095700 34.086100 -179.683000 15.735700 0.000005 -0.000001 115.128000 83.192000 -114.840000 8.984550 -0.406207 -0.000000 4.565580 5.763720 0.345365 16.377300 -0.000001 -0.000001 3.144290 4.691180 1.910570 6.456720 -0.000001 -0.000000 4.793580 5.185130 -7.365680 12.994200 -0.242716 4.980390 -89.545900 -1.017630 -65.948900 5.348090 -0.000007 -0.000001 -64.797900 10.409500 -1.146300 24.328600 0.000019 0.000005 2.917640 7.649620 -20.950800 22.291600 -0.000001 0.000005 12.685600 5.488900 -6.095520 12.994500 -0.242716 -4.980390 87.956900 7.467450 -74.650900 -5.348130 -0.000001 -0.000004 -43.207300 11.908400 -28.657000 -24.328900 0.000322 -0.000009 3.078850 9.483670 -18.084900 -22.291500 -0.000108 -0.000004 14.239500 5.353390 -1.479480 -2.192480 -6.469440 -0.000000 175.730000 -16.822200 -27.513400 39.081100 -0.000007 -0.000012 0.006224 -0.011022 29.452400 40.985400 -0.000006 -0.000013 6.356620 -2.566260 -51.501400 11.754300 -0.000000 0.000003 -0.007959 -0.087709 -20.148300 -2.192510 6.469440 -0.000001 170.052000 20.795400 -172.561000 -39.081100 -0.002282 -0.040193 0.045133 -0.117974 19.514700 -40.985400 0.000008 0.000006 -5.600130 0.715226 -69.822200 -11.754300 -0.000006 -0.000006 -0.004180 -0.053303 -18.741400
0.000000 0.000000 0.000000 0.000000 0.000000 -0.000000 71.571700 89.712500 163.529000 -87.866000 33.272000 179.658000 15.735700 0.000005 -0.000001 116.039000 83.244300 -115.731000 8.984550 -0.406207 -0.000000 4.377140 5.912240 0.389005 16.377300 -0.000001 -0.000001 3.105380 4.547760 1.789860 6.456720 -0.000001 -0.000000 4.636280 5.070060 -8.044200 12.994200 -0.242716 4.980390 -89.480500 -1.158420 -65.841700 5.348090 -0.000007 -0.000001 -65.251100 6.821220 0.141979 24.328600 0.000019 0.000005 3.126810 9.456610 -18.392300 22.291600 -0.000001 0.000005 14.389100 5.453920 -4.782730 12.994500 -0.242716 -4.980390 87.933700 7.508110 -74.563900 -5.348130 -0.000001 -0.000004 -43.052700 10.393700 -29.573100 -24.328900 0.000322 -0.000009 3.135420 9.317300 -18.698700 -22.291500 -0.000108 -0.000004 15.084100 5.352080 -1.439730 -2.192480 -6.469440 -0.000000 174.584000 -16.881700 -26.870500 39.081100 -0.000007 -0.000012 0.033990 -0.108276 17.428500 40.985400 -0.000006 -0.000013 8.350550 -3.321540 -49.155400 11.754300 -0.000000 0.000003 -0.007154 -0.080993 -19.874100 -2.192510 6.469440 -0.000001 169.537000 21.017200 -171.576000 -39.081100 -0.002282 -0.040193 0.030843 -0.073473 20.535600 -40.985400 0.000008 0.000006 -6.261190 0.865565 -68.826600 -11.754300 -0.000006 -0.000006 -1.381130 -1.583790 -20.856000
0.000000 0.000000 0.000000 0.000000 0.000000 -0.000000 73.141800 89.237900 160.546000 -87.702400 33.092300 179.369000 15.735700 0.000005 -0.000001 116.439000 83.237200 -116.168000 8.984550 -0.406207 -0.000000 4.350340 6.004250 0.312492 16.377300 -0.000001 -0.000001 3.126850 4.539060 1.914740 6.456720 -0.000001 -0.000000 4.563260 4.981590 -8.918030 12.994200 -0.242716 4.980390 -89.478900 -1.167070 -65.937800 5.348090 -0.000007 -0.000001 -66.177700 3.307040 1.568480 24.328600 0.000019 0.000005 3.107460 11.896400 -14.755500 22.291600 -0.000001 0.000005 16.440600 5.405580 -3.123850 12.994500 -0.242716 -4.980390 87.886900 7.772250 -74.738900 -5.348130 -0.000001 -0.000004 -43.582900 9.277910 -30.159800 -24.328900 0.000322 -0.000009 3.031830 8.665790 -19.374200 -22.291500 -0.000108 -0.000004 15.720000 5.355090 -1.530400 -2.192480 -6.469440 -0.000000 174.393000 -16.772700 -27.139300 39.081100 -0.000007 -0.000012 0.046208 -0.203791 12.775500 40.985400 -0.000006 -0.000013 9.222840 -4.695190 -50.078300 11.754300 -0.000000 0.000003 -0.007380 -0.082901 -19.952000 -2.192510 6.469440 -0.000001 168.895000 19.878400 -171.111000 -39.081100 -0.002282 -0.040193 -0.013073 0.038838 22.878400 -40.985400 0.000008 0.000006 -6.835750 0.412494 -66.398300 -11.754300 -0.000006 -0.000006 -3.362470 -3.523050 -25.425900
0.000000 0.000000 0.000000 0.000000 0.000000 -0.000000 74.763300 88.812600 156.858000 -88.225200 32.967200 179.606000 15.735700 0.000005 -0.000001 115.516000 83.269500 -115.564000 8.984550 -0.406207 -0.000000 4.402770 5.790290 -0.318867 16.377300 -0.000001 -0.000001 3.059920 4.582410 2.343460 6.456720 -0.000001 -0.000000 4.504710 4.889280 -9.566260 12.994200 -0.242716 4.980390 -89.507000 -1.129730 -66.421500 5.348090 -0.000007 -0.000001 -67.403800 0.483874 3.108460 24.328600 0.000019 0.000005 2.799070 14.765600 -10.860000 22.291600 -0.000001 0.000005 17.830500 5.334490 -0.919552 12.994500 -0.242716 -4.980390 87.788500 8.170940 -74.799200 -5.348130 -0.000001 -0.000004 -44.715700 9.166030 -30.272400 -24.328900 0.000322 -0.000009 2.740900 7.396180 -20.407700 -22.291500 -0.000108 -0.000004 16.119700 5.364950 -1.830870 -2.192480 -6.469440 -0.000000 174.365000 -16.012200 -28.868900 39.081100 -0.000007 -0.000012 0.085465 -0.275977 17.206800 40.985400 -0.000006 -0.000013 8.849090 -5.206390 -45.068900 11.754300 -0.000000 0.000003 -0.009354 -0.098752 -20.599600 -2.192510 6.469440 -0.000001 167.490000 18.183400 -170.430000 -39.081100 -0.002282 -0.040193 -0.049356 0.110119 25.560300 -40.985400 0.000008 0.000006 -7.357890 -0.282584 -63.502300 -11.754300 -0.000006 -0.000006 -3.687760 -3.443860 -28.313700
0.000000 0.000000 0.000000 0.000000 0.000000 -0.000000 76.405900 88.437100 152.478000 -88.869600 33.158900 -179.490000 15.735700 0.000005 -0.000001 113.980000 83.223500 -114.461000 8.984550 -0.406207 -0.000000 4.657810 5.511220 -1.185200 16.377300 -0.000001 -0.000001 2.624890 4.599940 2.504990 6.456720 -0.000001 -0.000000 4.731040 4.928080 -9.457950 12.994200 -0.242716 4.980390 -89.534300 -1.073770 -66.551100 5.348090 -0.000007 -0.000001 -68.839500 0.550002 4.275560 24.328600 0.000019 0.000005 1.860090 16.113800 -6.674350 22.291600 -0.000001 0.000005 17.456800 5.283500 0.531393 12.994500 -0.242716 -4.980390 87.668900 8.443930 -74.505600 -5.348130 -0.000001 -0.000004 -46.494700 10.542200 -29.505100 -24.328900 0.000322 -0.000009 2.595210 6.306210 -22.432000 -22.291500 -0.000108 -0.000004 15.932800 5.373760 -2.103680 -2.192480 -6.469440 -0.000000 174.730000 -14.682300 -30.215900 39.081100 -0.000007 -0.000012 0.091417 -0.184412 26.368600 40.985400 -0.000006 -0.000013 7.626490 -7.895220 -46.936500 11.754300 -0.000000 0.000003 -0.007505 -0.083950 -19.994900 -2.192510 6.469440 -0.000001 165.896000 15.411600 -169.633000 -39.081100 -0.002282 -0.040193 -0.015384 0.033350 29.264300 -40.985400 0.000008 0.000006 -7.254430 -1.387540 -60.191900 -11.754300 -0.000006 -0.000006 -0.072288 -0.369794 -31.894400
0.000000 0.000000 0.000000 0.000000 0.000000 -0.000000 77.938800 88.323300 147.826000 -89.646400 32.913400 -177.829000 15.735700 0.000005 -0.000001 111.973000 82.888800 -112.867000 8.984550 -0.406207 -0.000000 5.484150 5.327190 -2.041000 16.377300 -0.000001 -0.000001 2.229180 4.388050 2.051350 6.456720 -0.000001 -0.000000 4.412580 4.847230 -9.069430 12.994200 -0.242716 4.980390 -89.532300 -1.096960 -66.905600 5.348090 -0.000007 -0.000001 -70.985700 1.450930 4.627000 24.328600 0.000019 0.000005 1.447700 19.122300 -4.411980 22.291600 -0.000001 0.000005 13.120000 5.236790 1.783310 12.994500 -0.242716 -4.980390 87.706500 8.228580 -74.366500 -5.348130 -0.000001 -0.000004 -49.610400 11.757900 -26.423600 -24.328900 0.000322 -0.000009 2.846350 5.705460 -26.579500 -22.291500 -0.000108 -0.000004 15.033900 5.388410 -2.565350 -2.192480 -6.469440 -0.000000 174.773000 -13.393200 -28.949900 39.081100 -0.000007 -0.000012 0.000389 -0.000586 33.560200 40.985400 -0.000006 -0.000013 6.233970 -8.626700 -53.883600 11.754300 -0.000000 0.000003 -0.003114 -0.041896 -18.280700 -2.192510 6.469440 -0.000001 164.792000 12.429700 -169.759000 -39.081100 -0.002282 -0.040193 0.067086 -0.092424 34.614700 -40.985400 0.000008 0.000006 -4.562730 -3.709230 -53.594500 -11.754300 -0.000006 -0.000006 -0.144645 -0.544054 -39.549700
0.000000 0.000000 0.000000 0.000000 0.000000 -0.000000 79.271300 88.362100 143.421000 -89.339500 32.887400 -177.463000 15.735700 0.000005 -0.000001 112.503000 82.831700 -113.367000 8.984550 -0.406207 -0.000000 5.541170 5.490980 -1.994170 16.377300 -0.000001 -0.000001 2.455800 4.519390 1.644530 6.456720 -0.000001 -0.000000 4.295660 4.784940 -9.663270 12.994200 -0.242716 4.980390 -89.430900 -1.327920 -66.799100 5.348090 -0.000007 -0.000001 -73.966800 3.618210 4.388610 24.328600 0.000019 0.000005 1.518090 21.629900 -4.112170 22.291600 -0.000001 0.000005 7.740180 5.234500 1.837370 12.994500 -0.242716 -4.980390 87.829700 7.699940 -74.206900 -5.348130 -0.000001 -0.000004 -52.166500 14.214700 -22.470500 -24.328900 0.000322 -0.000009 3.606950 6.014710 -31.036800 -22.291500 -0.000108 -0.000004 13.415400 5.412170 -3.339560 -2.192480 -6.469440 -0.000000 174.991000 -13.546700 -27.106000 39.081100 -0.000007 -0.000012 -0.088550 0.115156 37.559000 40.985400 -0.000006 -0.000013 5.617440 -9.016220 -59.247800 11.754300 -0.000000 0.000003 -0.001404 -0.020989 -17.430300 -2.192510 6.469440 -0.000001 165.415000 9.697600 -173.286000 -39.081100 -0.002282 -0.040193 0.173785 -0.186651 42.413100 -40.985400 0.000008 0.000006 -1.200780 -7.147270 -43.766900 -11.754300 -0.000006 -0.000006 -0.146779 -0.548339 -39.743700
0.000000 0.000000 0.000000 0.000000 0.000000 -0.000000 80.393700 88.414700 139.454000 -89.592700 32.132200 -177.122000 15.735700 0.000005 -0.000001 111.213000 82.916600 -112.150000 8.984550 -0.406207 -0.000000 5.500930 5.132620 -2.120430 16.377300 -0.000001 -0.000001 2.557020 4.713140 1.220670 6.456720 -0.000001 -0.000000 4.535640 5.179860 -10.048900 12.994200 -0.242716 4.980390 -89.415600 -1.356200 -66.685900 5.348090 -0.000007 -0.000001 -76.883700 6.931870 3.508790 24.328600 0.000019 0.000005 1.966010 20.515600 -5.594450 22.291600 -0.000001 0.000005 3.852270 5.258930 1.192210 12.994500 -0.242716 -4.980390 87.846900 7.378110 -73.682000 -5.348130 -0.000001 -0.000004 -53.642800 18.010800 -19.593500 -24.328900 0.000322 -0.000009 4.890860 7.386150 -33.653500 -22.291500 -0.000108 -0.000004 11.374200 5.443110 -4.397230 -2.192480 -6.469440 -0.000000 174.511000 -13.617700 -24.848900 39.081100 -0.000007 -0.000012 -0.137564 0.166980 39.483400 40.985400 -0.000006 -0.000013 5.435770 -8.851850 -63.311200 11.754300 -0.000000 0.000003 -0.000636 -0.010089 -16.987300 -2.192510 6.469440 -0.000001 166.745000 6.644090 -178.469000 -39.081100 -0.002282 -0.040193 0.195151 -0.155739 50.939700 -40.985400 0.000008 0.000006 4.769960 -10.843200 -33.778000 -11.754300 -0.000006 -0.000006 -0.035749 -0.242697 -26.531200
0.000000 0.000000 0.000000 0.000000 0.000000 -0.000000 81.463400 88.572400 135.810000 -90.280300 30.529500 -176.758000 15.735700 0.000005 -0.000001 108.182000 83.082000 -109.341000 8.984550 -0.406207 -0.000000 5.436390 4.331040 -2.523580 16.377300 -0.000001 -0.000001 2.662580 4.710070 0.877441 6.456720 -0.000001 -0.000000 4.677880 5.748430 -9.741100 12.994200 -0.242716 4.980390 -89.410200 -1.382520 -66.894400 5.348090 -0.000007 -0.000001 -79.195000 11.582900 1.910640 24.328600 0.000019 0.000005 2.598500 17.674900 -8.502180 22.291600 -0.000001 0.000005 2.950400 5.316190 -0.388250 12.994500 -0.242716 -4.980390 87.836100 7.144710 -73.101100 -5.348130 -0.000001 -0.000004 -55.308800 22.004800 -17.025900 -24.328900 0.000322 -0.000009 5.815600 8.531030 -34.477900 -22.291500 -0.000108 -0.000004 10.235400 5.447460 -4.548800 -2.192480 -6.469440 -0.000000 173.708000 -12.744300 -22.078800 39.081100 -0.000007 -0.000012 -0.172069 0.206874 39.752700 40.985400 -0.000006 -0.000013 5.331470 -8.619390 -66.291800 11.754300 -0.000000 0.000003 -0.000377 -0.006115 -16.825800 -2.192510 6.469440 -0.000001 167.649000 4.387900 176.437000 -39.081100 -0.002282 -0.040193 0.168781 -0.098218 59.324100 -40.985400 0.000008 0.000006 4.417160 -8.046600 -34.578600 -11.754300 -0.000006 -0.000006 -0.023127 -0.184033 -24.098400
